<mxfile host="app.diagrams.net" modified="2024-03-04T06:42:22.290Z" agent="Mozilla/5.0 (Macintosh; Intel Mac OS X 10_15_7) AppleWebKit/537.36 (KHTML, like Gecko) Chrome/121.0.0.0 Safari/537.36" version="23.1.6" etag="LTDIJXsndPbQcnu2DeC3" type="github">
  <diagram name="第 1 页" id="hp3AMbpXNa0bXUceUe0_">
    <mxGraphModel>
      <root>
        <mxCell id="0" />
        <mxCell id="1" parent="0" />
      </root>
    </mxGraphModel>
  </diagram>
</mxfile>
